<svg
    id="Capa_1"
    enable-background="new 0 0 512 512"
    height="19"
    width="19"
    viewBox="0 0 512 512"
    xmlns="http://www.w3.org/2000/svg"
>
    <g>
        <path d="m182.481 18.973c-4.692 2.456-6.745 8.097-4.73 12.995 8.371 20.343 35.545 72.026 102.682 96.461 84.654 30.812 148.481-12.403 148.481-12.403s-21.116-74.132-105.77-104.944c-67.137-24.436-121.174-2.312-140.663 7.891z" fill="#95d6a4"/>
        <path d="m388.874 52.675c-.073-.018-.153-.042-.246-.087-29.826-14.18-62.64-21.369-97.529-21.369-34.878 0-69.934 7.387-103.069 21.208 14.363 24.245 42.217 57.735 92.404 76.002 84.654 30.812 148.481-12.403 148.481-12.403s-9.255-32.461-40.041-63.351z" fill="#78c2a4"/>
        <path d="m404.999 432.056c78.402-78.402 100.177-189.162 60.713-271.963-3.007-6.308-3.153-13.596-.266-19.96 10.159-22.39 8.708-46.186-5.874-60.768-14.594-14.594-38.418-16.036-60.824-5.849-6.358 2.891-13.643 2.748-19.951-.251-82.782-39.355-193.447-17.557-271.796 60.792-78.402 78.402-100.177 189.162-60.714 271.963 3.007 6.308 3.153 13.596.266 19.96-10.159 22.39-8.708 46.186 5.874 60.768 14.594 14.594 38.418 16.036 60.824 5.849 6.358-2.891 13.643-2.748 19.951.251 82.783 39.356 193.448 17.558 271.797-60.792z" fill="#ffe07d"/>
        <path d="m229.177 427.908c-82.029 0-155.031-38.622-201.834-98.667 1.346 26.945 7.618 53.015 18.944 76.78 3.007 6.308 3.153 13.596.266 19.96-10.159 22.39-8.708 46.186 5.874 60.768 14.594 14.594 38.418 16.036 60.824 5.849 6.358-2.891 13.643-2.748 19.951.25 82.783 39.356 193.448 17.558 271.797-60.792 63.004-63.004 89.429-146.901 76.903-220.396-18.999 122.491-124.91 216.248-252.725 216.248z" fill="#ffd064"/>
        <path d="m139.129 188.928c-1.441 4.983 1.043 10.251 5.804 12.309 21.387 9.248 83.544 29.846 155.267-3.973 71.751-33.833 95.394-94.929 101.855-117.29 1.435-4.968-1.04-10.218-5.786-12.271-21.363-9.242-83.541-29.871-155.292 3.962-71.723 33.818-95.376 94.879-101.848 117.263z" fill="#b3e59f"/>
        <path d="m330.955 53.146c1.961 3.065 3.674 6.301 5.099 9.713 19.643 47.029-21.091 108.819-90.982 138.01-16.838 7.033-33.83 11.525-50.203 13.645 28.592 3.527 65.482 1.54 105.331-17.25 71.742-33.828 95.388-94.913 101.853-117.282 1.434-4.963-1.029-10.221-5.771-12.273-11.523-4.984-34.937-13.288-65.327-14.563z" fill="#95d6a4"/>
        <g>
            <path d="m400.497 219.386c-4.267 0-7.726-3.459-7.726-7.726s3.459-7.726 7.726-7.726c4.921 0 8.924-4.003 8.924-8.924 0-4.268 3.459-7.726 7.726-7.726s7.726 3.459 7.726 7.726c.001 13.441-10.935 24.376-24.376 24.376z" fill="#ffd064"/>
        </g>
        <g>
            <path d="m370.011 280.377c-4.267 0-7.726-3.459-7.726-7.726s3.459-7.726 7.726-7.726c4.921 0 8.924-4.004 8.924-8.925 0-4.268 3.459-7.726 7.726-7.726s7.726 3.459 7.726 7.726c0 13.442-10.935 24.377-24.376 24.377z" fill="#ffd064"/>
        </g>
        <g>
            <path d="m417.147 295.063c-4.267 0-7.726-3.459-7.726-7.726 0-4.268 3.459-7.726 7.726-7.726 4.921 0 8.924-4.003 8.924-8.924 0-4.268 3.459-7.726 7.726-7.726s7.726 3.459 7.726 7.726c.001 13.441-10.934 24.376-24.376 24.376z" fill="#ffd064"/></g><g><path d="m374.141 340.381c-4.267 0-7.726-3.459-7.726-7.726s3.459-7.726 7.726-7.726c4.921 0 8.924-4.003 8.924-8.924 0-4.268 3.459-7.726 7.726-7.726s7.726 3.459 7.726 7.726c.001 13.441-10.935 24.376-24.376 24.376z" fill="#ffd064"/></g><g><path d="m308.472 303.389c-4.267 0-7.726-3.459-7.726-7.726 0-4.268 3.459-7.726 7.726-7.726 4.921 0 8.924-4.004 8.924-8.925 0-4.268 3.459-7.726 7.726-7.726s7.726 3.459 7.726 7.726c.001 13.442-10.935 24.377-24.376 24.377z" fill="#ffd064"/></g><path d="m396.285 67.71c-1.097-.475-2.301-.979-3.61-1.505-31.811 6.751-101.882 25.329-159.992 66.873-3.513 2.511-4.484 7.61-1.896 11.067 1.512 2.02 3.834 3.094 6.189 3.094 1.557 0 3.13-.47 4.492-1.446 59.277-42.458 133.883-60.345 160.542-65.676.016-.054.031-.109.047-.163 1.43-4.95-1.043-10.198-5.772-12.244z" fill="#78c2a4"/></g></svg>